<?xml version="1.0" encoding="UTF-8"?>
<svg width="41px" height="42px" viewBox="0 0 41 42" version="1.1" xmlns="http://www.w3.org/2000/svg" xmlns:xlink="http://www.w3.org/1999/xlink">
    <!-- Generator: Sketch 64 (93537) - https://sketch.com -->
    <title>Group 8</title>
    <desc>Created with Sketch.</desc>
    <defs>
        <polygon id="path-1" points="0 0.00260909091 40.9973598 0.00260909091 40.9973598 41 0 41"></polygon>
    </defs>
    <g id="Symbols" stroke="none" stroke-width="1" fill="none" fill-rule="evenodd">
        <g id="Footer" transform="translate(-186.000000, -145.000000)">
            <g id="Group-8" transform="translate(186.000000, 145.000000)">
                <path d="M20.5041621,16.3776053 C18.0690106,16.3776053 16.0951091,18.3515068 16.0951091,20.7866583 C16.0951091,23.2218098 18.0690106,25.196022 20.5041621,25.196022 C22.9393136,25.196022 24.9132152,23.2218098 24.9132152,20.7866583 C24.9132152,18.3515068 22.9393136,16.3776053 20.5041621,16.3776053" id="Fill-1" fill="#3C3C3B"></path>
                <path d="M27.3781227,15.5376333 C26.4975545,15.5376333 25.7837818,14.8238606 25.7837818,13.9432924 C25.7837818,13.0627242 26.4975545,12.3489515 27.3781227,12.3489515 C28.2586909,12.3489515 28.9724636,13.0627242 28.9724636,13.9432924 C28.9724636,14.8238606 28.2586909,15.5376333 27.3781227,15.5376333 M20.5367136,27.5149136 C16.8178273,27.5149136 13.8030848,24.5001712 13.8030848,20.7812848 C13.8030848,17.0627091 16.8178273,14.0479667 20.5367136,14.0479667 C24.2552894,14.0479667 27.2700318,17.0627091 27.2700318,20.7812848 C27.2700318,24.5001712 24.2552894,27.5149136 20.5367136,27.5149136 M25.6113955,10.1967621 L15.3862439,10.1967621 C13.9962818,10.1967621 12.6839712,10.7431182 11.6912742,11.7358152 C10.6988879,12.7282015 10.1522212,14.0405121 10.1522212,15.4304742 L10.1522212,26.3262242 C10.1522212,27.716497 10.6988879,29.028497 11.6912742,30.0208833 C12.6839712,31.0135803 13.9962818,31.560247 15.3862439,31.560247 L25.6113955,31.560247 C27.0016682,31.560247 28.3136682,31.0135803 29.3063652,30.0208833 C30.2987515,29.028497 30.8451076,27.716497 30.8451076,26.3262242 L30.8451076,15.4304742 C30.8451076,14.0405121 30.2987515,12.7282015 29.3063652,11.7358152 C28.3136682,10.7431182 27.0016682,10.1967621 25.6113955,10.1967621" id="Fill-3" fill="#3C3C3B"></path>
                <g id="Group-7" transform="translate(0.000000, 0.308121)">
                    <mask id="mask-2" fill="white">
                        <use xlink:href="#path-1"></use>
                    </mask>
                    <g id="Clip-6"></g>
                    <path d="M32.7249886,26.0180409 C32.7249886,29.9304348 29.5238826,33.1315409 25.6114886,33.1315409 L15.3863371,33.1315409 C11.4736326,33.1315409 8.27252652,29.9304348 8.27252652,26.0180409 L8.27252652,15.1226015 C8.27252652,11.209897 11.4736326,8.00879091 15.3863371,8.00879091 L25.6114886,8.00879091 C29.5238826,8.00879091 32.7249886,11.209897 32.7249886,15.1226015 L32.7249886,26.0180409 Z M-0.00015530303,41.0001242 L40.9973598,41.0001242 L40.9973598,0.00260909091 L-0.00015530303,0.00260909091 L-0.00015530303,41.0001242 Z" id="Fill-5" fill="#3C3C3B" mask="url(#mask-2)"></path>
                </g>
            </g>
        </g>
    </g>
</svg>