<?xml version="1.0" encoding="UTF-8"?>
<svg width="41px" height="41px" viewBox="0 0 41 41" version="1.1" xmlns="http://www.w3.org/2000/svg" xmlns:xlink="http://www.w3.org/1999/xlink">
    <!-- Generator: Sketch 64 (93537) - https://sketch.com -->
    <title>Group 8</title>
    <desc>Created with Sketch.</desc>
    <defs>
        <polygon id="path-1" points="0 0.00248484848 40.997453 0.00248484848 40.997453 40.9999689 0 40.9999689"></polygon>
    </defs>
    <g id="Symbols" stroke="none" stroke-width="1" fill="none" fill-rule="evenodd">
        <g id="Footer" transform="translate(-186.000000, -145.000000)">
            <g id="Group-8" transform="translate(186.000000, 145.000000)">
                <path d="M20.5,25 C22.9853822,25 25,22.9854531 25,20.5001585 C25,18.0148639 22.9853822,16 20.5,16 C18.0146178,16 16,18.0148639 16,20.5001585 C16,22.9854531 18.0146178,25 20.5,25" id="Fill-1" fill="#005C82"></path>
                <path d="M20.5382987,13.785679 C24.312379,13.785679 27.3715495,16.7491277 27.3715495,20.4044344 C27.3715495,24.0600465 24.312379,27.0234952 20.5382987,27.0234952 C16.7642185,27.0234952 13.705048,24.0600465 13.705048,20.4044344 C13.705048,16.7491277 16.7642185,13.785679 20.5382987,13.785679 M27.4812447,12.1155714 C28.3748818,12.1155714 29.099248,12.8171998 29.099248,13.6827857 C29.099248,14.5483716 28.3748818,15.25 27.4812447,15.25 C26.5876075,15.25 25.8632413,14.5483716 25.8632413,13.6827857 C25.8632413,12.8171998 26.5876075,12.1155714 27.4812447,12.1155714 M15.3117035,31 L25.6882965,31 C27.099203,31 28.4309902,30.4626345 29.4381051,29.4868276 C30.44522,28.511326 31,27.2216487 31,25.8550305 L31,15.1446641 C31,13.7783513 30.44522,12.4883687 29.4381051,11.5128671 C28.4309902,10.5370602 27.099203,10 25.6882965,10 L15.3117035,10 C13.900797,10 12.5690098,10.5370602 11.5618949,11.5128671 C10.5544648,12.4883687 10,13.7783513 10,15.1446641 L10,25.8550305 C10,27.2216487 10.5544648,28.511326 11.5618949,29.4868276 C12.5690098,30.4626345 13.900797,31 15.3117035,31" id="Fill-3" fill="#005C82"></path>
                <g id="Group-7">
                    <mask id="mask-2" fill="white">
                        <use xlink:href="#path-1"></use>
                    </mask>
                    <g id="Clip-6"></g>
                    <path d="M8.2726197,15.1224462 C8.2726197,11.2100523 11.4737258,8.00894621 15.3861197,8.00894621 L25.6112712,8.00894621 C29.5239758,8.00894621 32.7250818,11.2100523 32.7250818,15.1224462 L32.7250818,26.0181962 C32.7250818,29.9305902 29.5239758,33.1316962 25.6112712,33.1316962 L15.3861197,33.1316962 C11.4737258,33.1316962 8.2726197,29.9305902 8.2726197,26.0181962 L8.2726197,15.1224462 Z M-6.21212121e-05,40.9999689 L40.997453,40.9999689 L40.997453,0.00245378788 L-6.21212121e-05,0.00245378788 L-6.21212121e-05,40.9999689 Z" id="Fill-5" fill="#005C82" mask="url(#mask-2)"></path>
                </g>
            </g>
        </g>
    </g>
</svg>