<?xml version="1.0" encoding="UTF-8"?>
<svg width="41px" height="41px" viewBox="0 0 41 41" version="1.1" xmlns="http://www.w3.org/2000/svg" xmlns:xlink="http://www.w3.org/1999/xlink">
    <!-- Generator: Sketch 64 (93537) - https://sketch.com -->
    <title>Fill 1</title>
    <desc>Created with Sketch.</desc>
    <g id="Symbols" stroke="none" stroke-width="1" fill="none" fill-rule="evenodd">
        <g id="Footer" transform="translate(-284.000000, -145.000000)" fill="#005C82">
            <path d="M293,177 L299,177 L299,162 L293,162 L293,177 Z M298.188176,154.79266 C300.656578,158.004936 297.004772,161.655091 293.799983,159.18966 C291.363461,155.994549 294.973578,152.365413 298.188176,154.79266 L298.188176,154.79266 Z M308.693435,166.001827 C306.190504,166.001827 305.806239,167.850767 305.806239,169.759757 L305.806239,177 L301,177 L301,162.363998 L305.613781,162.363998 L305.613781,164.363834 L305.67826,164.363834 C306.320438,163.21302 307.88941,162 310.229517,162 C315.10056,162 316,165.031781 316,168.972017 L316,177 L311.192784,177 L311.192784,169.882322 C311.192784,168.185202 311.159893,166.001827 308.693435,166.001827 L308.693435,166.001827 Z M284,186 L325,186 L325,145 L284,145 L284,186 Z" id="Fill-1"></path>
        </g>
    </g>
</svg>