<?xml version="1.0" encoding="utf-8"?>
<!-- Generator: Adobe Illustrator 26.0.3, SVG Export Plug-In . SVG Version: 6.00 Build 0)  -->
<svg version="1.1" id="Layer_1" xmlns="http://www.w3.org/2000/svg" xmlns:xlink="http://www.w3.org/1999/xlink" x="0px" y="0px"
	 viewBox="0 0 1589 635.5" style="enable-background:new 0 0 1589 635.5;" xml:space="preserve">
<style type="text/css">
	.st0{fill:#636569;}
	.st1{fill:#691C32;}
	.st2{fill:#8F993E;}
	.st3{fill:#004D71;}
</style>
<g>
	<g>
		<path class="st0" d="M521.1,279.4h-49.8v-28.7h130.1v28.7h-49.8v163.4h-30.6V279.4z"/>
		<path class="st0" d="M775,442.7l-46.5-81.4c23.6-5.7,39.8-21.8,39.8-53.6c0-42.8-27.2-56.9-62.4-56.9h-57.1v191.9h30.1v-78.9h17.7
			l44.6,78.9H775z M678.9,278h24c23.2,0,34.3,7.6,34.3,29.7c0,21.8-11.1,30.5-34.3,30.5h-24V278z"/>
		<path class="st0" d="M832.4,250.7h30.1v192.1h-30.1V250.7z"/>
		<path class="st0" d="M931.1,250.7h31.3l53.4,108l17.8,41h0c-1.5-19.9-2.8-44.2-2.8-65.6v-83.4h29v192.1h-31.3L975,334.7
			l-17.8-40.8l0,0c1.5,20.3,2.8,43.5,2.8,64.9v84.1h-29V250.7z"/>
		<path class="st0" d="M1129.1,250.7h30.1v191.8h-30.1V250.7z"/>
		<path class="st0" d="M1261,279.3h-50.3v-28.6h131.4v28.6h-50.3v162.9H1261V279.3z"/>
		<path class="st0" d="M1429.1,371.4l-61.5-120.7h37.9c0,0,33,73.9,38.4,88.5h1c5.4-14.6,40-88.5,40-88.5h35.1l-60.5,120.7v71.4
			h-30.4V371.4z"/>
	</g>
	<polygon class="st1" points="69,158.6 69,70.8 338.6,70.8 	"/>
	<polygon class="st2" points="280.4,344.2 368.2,344.2 368.2,74.6 	"/>
	<polygon class="st3" points="96.8,167.6 96.8,374.5 272.4,374.5 	"/>
	<g>
		<path class="st0" d="M147.6,508.8h-18.7V564h-13.3v-55.2H96.8v-11.1h50.8V508.8z"/>
		<path class="st0" d="M244.1,497.7V564h-13.3v-28.5h-28.2V564h-13.3v-66.3h13.3v28.1h28.2v-28.1H244.1z"/>
		<path class="st0" d="M304.4,508.5v17h21.4v10.4h-21.4v17.4h27.5V564h-40.8v-66.3h40.8v10.7H304.4z"/>
		<path class="st0" d="M451.6,497.7c4.4,0,8.2,0.5,11.4,1.6c3.2,1.1,5.8,2.6,7.9,4.5c2.1,1.9,3.6,4.2,4.6,6.8c1,2.6,1.5,5.5,1.5,8.5
			c0,3.3-0.5,6.2-1.5,9c-1,2.7-2.6,5-4.7,7c-2.1,1.9-4.7,3.5-7.9,4.5c-3.2,1.1-6.9,1.6-11.2,1.6h-8.4V564h-13.3v-66.3H451.6z
			 M451.6,530.7c4.2,0,7.2-1,9.1-3.1c1.9-2.1,2.9-4.9,2.9-8.5c0-1.6-0.2-3.1-0.7-4.5c-0.5-1.4-1.2-2.5-2.2-3.5c-1-1-2.2-1.7-3.7-2.2
			c-1.5-0.5-3.3-0.8-5.3-0.8h-8.4v22.6H451.6z"/>
		<path class="st0" d="M557,552.8V564h-38v-66.3h13.3v55.1H557z"/>
		<path class="st0" d="M654.7,564h-10.3c-1.1,0-2.1-0.3-2.8-0.8c-0.7-0.6-1.3-1.3-1.6-2.2l-4.3-12.7h-25.5l-4.3,12.7
			c-0.3,0.8-0.8,1.5-1.5,2.1c-0.7,0.6-1.7,0.9-2.8,0.9h-10.4l25.1-66.3h13.6L654.7,564z M632.5,538.8l-6.9-20.3
			c-0.4-1.1-0.8-2.3-1.3-3.7c-0.5-1.4-0.9-3-1.3-4.7c-0.4,1.7-0.8,3.3-1.3,4.7c-0.5,1.4-0.9,2.7-1.3,3.8l-6.9,20.2H632.5z"/>
		<path class="st0" d="M735.9,547.7c0.7,0,1.4,0.3,1.9,0.8l5.3,5.8c-2.6,3.4-5.8,6-9.7,7.8s-8.4,2.6-13.7,2.6
			c-4.8,0-9.1-0.8-12.9-2.5c-3.8-1.7-7.1-4-9.8-7.1c-2.7-3-4.7-6.6-6.2-10.7c-1.4-4.1-2.2-8.7-2.2-13.6c0-3.3,0.3-6.4,1-9.4
			c0.7-3,1.7-5.7,3-8.2c1.3-2.5,2.9-4.7,4.8-6.8c1.9-2,4-3.7,6.3-5.1c2.4-1.4,4.9-2.5,7.7-3.2c2.8-0.7,5.8-1.1,8.9-1.1
			c2.4,0,4.6,0.2,6.7,0.6c2.1,0.4,4.1,1,5.9,1.8c1.8,0.8,3.5,1.7,5.1,2.8c1.5,1.1,2.9,2.3,4.2,3.5l-4.5,6.3c-0.3,0.4-0.6,0.7-1,1.1
			c-0.4,0.3-1,0.5-1.7,0.5s-1.4-0.3-2.1-0.8c-0.7-0.5-1.6-1.1-2.7-1.7c-1-0.6-2.4-1.2-3.9-1.7c-1.6-0.5-3.6-0.8-6-0.8
			c-2.7,0-5.1,0.5-7.4,1.5c-2.2,1-4.2,2.5-5.8,4.4c-1.6,1.9-2.9,4.2-3.7,7c-0.9,2.8-1.3,5.9-1.3,9.5c0,3.6,0.5,6.7,1.4,9.5
			c1,2.8,2.3,5.1,3.9,7.1c1.7,1.9,3.6,3.4,5.8,4.4c2.2,1,4.6,1.5,7.1,1.5c1.5,0,2.9-0.1,4.1-0.2c1.2-0.2,2.4-0.4,3.4-0.8
			c1-0.4,2-0.8,3-1.4c0.9-0.6,1.9-1.3,2.8-2.2c0.3-0.3,0.7-0.5,1-0.7C735.1,547.8,735.5,547.7,735.9,547.7z"/>
		<path class="st0" d="M797.4,508.5v17h21.4v10.4h-21.4v17.4h27.5V564h-40.8v-66.3h40.8v10.7H797.4z"/>
		<path class="st0" d="M965.6,508.8h-18.7V564h-13.3v-55.2h-18.7v-11.1h50.8V508.8z"/>
		<path class="st0" d="M1067.3,530.8c0,4.8-0.8,9.3-2.4,13.5c-1.6,4.1-3.8,7.7-6.7,10.7c-2.9,3-6.3,5.4-10.4,7.1
			c-4,1.7-8.5,2.6-13.4,2.6c-4.9,0-9.4-0.9-13.4-2.6c-4-1.7-7.5-4.1-10.4-7.1c-2.9-3-5.1-6.6-6.7-10.7c-1.6-4.1-2.4-8.6-2.4-13.5
			c0-4.8,0.8-9.3,2.4-13.4c1.6-4.1,3.8-7.7,6.7-10.7c2.9-3,6.3-5.4,10.4-7.1c4-1.7,8.5-2.6,13.4-2.6c4.9,0,9.4,0.9,13.4,2.6
			s7.5,4.1,10.4,7.1c2.9,3,5.1,6.6,6.7,10.7C1066.5,521.6,1067.3,526,1067.3,530.8z M1053.7,530.8c0-3.5-0.4-6.6-1.3-9.3
			c-0.9-2.8-2.2-5.1-3.8-7c-1.7-1.9-3.7-3.4-6.1-4.4c-2.4-1-5.1-1.5-8.1-1.5c-3,0-5.7,0.5-8.1,1.5c-2.4,1-4.4,2.5-6.1,4.4
			c-1.7,1.9-2.9,4.3-3.8,7c-0.9,2.8-1.3,5.9-1.3,9.3c0,3.5,0.4,6.6,1.3,9.4c0.9,2.8,2.2,5.1,3.8,7c1.7,1.9,3.7,3.4,6.1,4.4
			c2.4,1,5.1,1.5,8.1,1.5c3,0,5.7-0.5,8.1-1.5c2.4-1,4.4-2.5,6.1-4.4c1.7-1.9,2.9-4.3,3.8-7C1053.2,537.5,1053.7,534.3,1053.7,530.8
			z"/>
		<path class="st0" d="M1187.9,497.7c4.3,0,8,0.4,11,1.3c3,0.8,5.5,2,7.5,3.6c1.9,1.5,3.3,3.4,4.2,5.6c0.9,2.2,1.3,4.6,1.3,7.4
			c0,1.5-0.2,3-0.6,4.4c-0.4,1.4-1.1,2.7-2,4c-0.9,1.2-2.1,2.4-3.5,3.4c-1.4,1-3.1,1.9-5,2.6c4.4,1.1,7.6,2.8,9.7,5.2
			c2.1,2.4,3.1,5.5,3.1,9.4c0,2.8-0.5,5.4-1.6,7.8c-1,2.4-2.6,4.5-4.6,6.3c-2,1.8-4.5,3.1-7.4,4.1c-2.9,1-6.3,1.5-10.1,1.5h-24.8
			v-66.3H1187.9z M1178.4,508.1V526h8.7c1.9,0,3.5-0.2,4.9-0.5c1.4-0.3,2.7-0.8,3.6-1.5c1-0.7,1.7-1.6,2.2-2.8
			c0.5-1.1,0.8-2.5,0.8-4.1c0-1.6-0.2-3-0.6-4.2c-0.4-1.2-1.1-2.1-2-2.8c-0.9-0.7-2-1.2-3.4-1.5c-1.4-0.3-3-0.5-4.8-0.5H1178.4z
			 M1189.7,553.5c2.1,0,3.9-0.3,5.2-0.8c1.4-0.5,2.5-1.2,3.3-2.1c0.8-0.9,1.4-1.9,1.7-3c0.3-1.1,0.5-2.3,0.5-3.5
			c0-1.3-0.2-2.5-0.6-3.6c-0.4-1.1-1-2-1.9-2.7c-0.9-0.7-2-1.3-3.3-1.7c-1.4-0.4-3.1-0.6-5.1-0.6h-11.3v18.1H1189.7z"/>
		<path class="st0" d="M1270.7,508.5v17h21.4v10.4h-21.4v17.4h27.5V564h-40.8v-66.3h40.8v10.7H1270.7z"/>
	</g>
</g>
</svg>
