<?xml version="1.0" encoding="UTF-8"?>
<svg width="41px" height="41px" viewBox="0 0 41 41" version="1.1" xmlns="http://www.w3.org/2000/svg" xmlns:xlink="http://www.w3.org/1999/xlink">
    <!-- Generator: Sketch 64 (93537) - https://sketch.com -->
    <title>Fill 3</title>
    <desc>Created with Sketch.</desc>
    <g id="Symbols" stroke="none" stroke-width="1" fill="none" fill-rule="evenodd">
        <g id="Footer" transform="translate(-235.000000, -145.000000)" fill="#005C82">
            <path d="M266.353847,160.916115 C266.353847,167.92193 260.98847,176 251.176719,176 C248.164589,176 245.360429,175.122333 243,173.618073 C243.417189,173.667108 243.841873,173.692246 244.272489,173.692246 C246.771564,173.692246 249.071725,172.844683 250.89724,171.422665 C248.563042,171.380147 246.592948,169.847334 245.914078,167.741307 C246.240086,167.802756 246.574212,167.836273 246.917706,167.836273 C247.404218,167.836273 247.875742,167.771411 248.323221,167.650375 C245.86193,167.158782 244.012371,164.983237 244.044534,162.385306 C244.763686,162.782242 245.58651,163.020901 246.460858,163.048211 C245.029425,162.097613 244.087939,160.474799 244.087939,158.635671 C244.087939,157.663969 244.350868,156.753406 244.809901,155.970396 C247.440753,159.177851 251.371574,161.288533 255.804521,161.509502 C255.448848,159.992206 255.762989,158.220425 256.947731,156.539886 C259.891787,154.187131 263.097836,154.771518 264.89431,156.674267 C266.109342,156.43654 267.250991,155.995223 268.281785,155.38756 C267.883332,156.625852 267.037712,157.66459 265.936346,158.320667 C267.015229,158.192493 268.043525,157.907593 269,157.485829 C268.284908,158.549084 267.380582,159.482924 266.338234,160.230244 C266.348538,160.45773 266.353847,160.686457 266.353847,160.916115 L266.353847,160.916115 Z M235,186 L276,186 L276,145 L235,145 L235,186 Z" id="Fill-3"></path>
        </g>
    </g>
</svg>